<svg width="92" height="92" viewBox="0 0 92 92" fill="none" xmlns="http://www.w3.org/2000/svg">
<g clip-path="url(#clip0_10:1040)">
<path d="M87.6514 31.1514L63.4782 45.5604C61.6936 46.6241 60.9788 48.8127 61.6986 50.6917C60.6208 51.1438 59.4146 51.165 58.3097 50.7381L55.1826 49.5096C53.935 49.0192 52.5882 48.9338 51.2884 49.263L46.4972 50.4755C46.3114 50.5224 46.1294 50.5774 45.9513 50.6398C43.0242 48.9687 41.2805 48.4692 38.1917 49.6635L35.4186 50.7356C34.1081 51.2421 32.6632 51.1219 31.4516 50.4042L30.5253 49.8581C30.7911 48.2009 30.0472 46.4698 28.5218 45.5606L4.34862 31.1514C2.43189 30.0093 0 31.3879 0 33.6219V60.606C0 62.4693 0.994211 64.2193 2.59469 65.1733L13.1492 71.4647C15.1124 72.6346 17.6361 72.028 18.8582 70.1201L19.3094 70.3864L17.9409 72.2927C16.4123 74.4214 16.8984 77.3814 19.0275 78.9102C20.0799 79.6658 21.3625 79.9508 22.6192 79.7276C22.8117 80.9992 23.4967 82.1187 24.5423 82.8694C25.5918 83.6229 26.8825 83.9064 28.1358 83.6841C28.3204 84.9049 28.9771 86.0533 30.057 86.8285C31.5122 87.873 33.3164 87.9582 34.781 87.2971C35.1032 88.1902 35.6863 88.9648 36.474 89.5305C38.5207 90.9996 41.3587 90.603 42.9281 88.6584L46.4731 90.7586C47.2298 91.2069 48.0614 91.42 48.8827 91.42C50.5044 91.42 52.0866 90.5892 52.9713 89.0956C53.3449 88.4651 53.5553 87.7821 53.615 87.0966L53.753 87.1783C54.8431 87.8241 56.1196 88.0071 57.3465 87.6926C58.574 87.3785 59.6056 86.6051 60.2512 85.5153C60.6505 84.8415 60.8726 84.0965 60.9099 83.3361C61.6998 83.5567 62.5375 83.567 63.3535 83.3584C64.5809 83.0443 65.6125 82.2709 66.2582 81.1811C66.6339 80.5472 66.8529 79.8501 66.9083 79.1362C69.0593 80.0467 71.6121 79.2477 72.8345 77.1845C73.908 75.3725 73.6329 73.1291 72.3099 71.6282L73.6992 70.8165C75.0165 72.1464 77.1368 72.486 78.851 71.4645L81.4026 69.9434C82.0421 69.5623 82.2514 68.735 81.8703 68.0959C81.489 67.4562 80.6612 67.2472 80.0228 67.6282L77.4712 69.1492C76.8696 69.508 76.1372 69.3986 75.6652 68.9668C75.6563 68.891 64.3279 49.9593 64.3279 49.9593C63.9012 49.2389 64.1391 48.3042 64.8582 47.8755L89.0314 33.4665C89.1547 33.3939 89.3047 33.4805 89.3047 33.6218V60.6058C89.3047 61.5245 88.8143 62.3876 88.0253 62.8578L85.4775 64.3765C84.838 64.7577 84.6287 65.5849 85.0098 66.2241C85.3907 66.8636 86.2186 67.0722 86.8574 66.6918L89.4051 65.1731C91.0056 64.2191 91.9998 62.4692 91.9998 60.6058V33.6219C92 31.3909 89.5705 30.0073 87.6514 31.1514ZM51.9495 51.8759C52.6996 51.6861 53.4768 51.7353 54.197 52.0182L57.3309 53.2494C59.2015 53.9726 61.2443 53.8932 63.0265 53.0514L72.2155 68.562L70.7264 69.432C70.4558 69.5923 70.1964 69.7699 69.9495 69.9636L50.2969 58.3254C49.8802 58.0787 49.3632 58.0745 48.9429 58.3142C48.5223 58.5539 48.2626 59.0008 48.2626 59.4851V59.7559C48.2626 60.7145 47.8892 61.6158 47.2111 62.2934C46.5335 62.9707 45.6329 63.3433 44.6754 63.3433C44.5197 63.3376 44.3826 63.2127 44.3825 63.0504V56.6545C44.3825 55.261 45.1625 54.0172 46.3561 53.3942C46.4154 53.3703 46.4733 53.3421 46.529 53.3098C46.7288 53.2185 46.9392 53.1441 47.1583 53.0886L51.9495 51.8759ZM15.6844 69.317C15.2896 69.417 14.8792 69.3582 14.5292 69.1492L3.97469 62.858C3.1855 62.3876 2.69531 61.5247 2.69531 60.606V33.6219C2.69531 33.5932 2.69531 33.5168 2.78677 33.4649C2.82091 33.4455 2.85164 33.4387 2.87788 33.4387C2.92172 33.4387 2.95316 33.4573 2.96862 33.4665L27.142 47.8755C27.8611 48.3042 28.0992 49.2389 27.6722 49.9595L16.6186 68.6177C16.411 68.9681 16.0792 69.2166 15.6844 69.317ZM22.1246 77.0777C21.5851 77.1665 21.0436 77.0395 20.5992 76.7207C20.1552 76.4019 19.8618 75.9294 19.7732 75.3899C19.6846 74.8503 19.8113 74.3088 20.1302 73.8648L22.0529 71.1865C22.0998 71.1211 22.1501 71.0595 22.2029 71.0014C22.2428 70.9657 22.2807 70.927 22.3167 70.8861C23.0151 70.2318 24.1031 70.1389 24.9092 70.7175C25.8259 71.3757 26.0364 72.6571 25.3782 73.5738C25.3771 73.5753 25.376 73.5769 25.3749 73.5783L23.4553 76.2521C23.1367 76.6959 22.664 76.9892 22.1246 77.0777ZM26.114 80.6798C25.67 80.361 25.3765 79.8884 25.288 79.349C25.1994 78.8094 25.3261 78.2678 25.645 77.8238L27.5677 75.1456C27.5677 75.1456 27.5677 75.1454 27.5678 75.1454L29.6896 72.1899C30.0084 71.7457 30.4809 71.4524 31.0205 71.3637C31.1328 71.3452 31.245 71.3362 31.3565 71.3362C31.7812 71.3362 32.1941 71.4683 32.5459 71.7209C33.4627 72.3789 33.6731 73.6603 33.0149 74.5772L28.9701 80.2111C28.3119 81.1277 27.0306 81.3374 26.114 80.6798ZM33.154 84.9959C32.6147 85.0844 32.073 84.9576 31.6288 84.6388C30.712 83.9808 30.5016 82.6994 31.1598 81.7827C31.1609 81.7811 31.1619 81.7796 31.163 81.778L35.2046 76.1486C35.8626 75.2316 37.1439 75.0218 38.0609 75.6796C38.5049 75.9984 38.7983 76.4709 38.8869 77.0105C38.9755 77.55 38.8486 78.0917 38.5299 78.5357L34.4851 84.1697C34.1661 84.6138 33.6934 84.9073 33.154 84.9959ZM38.0458 87.3408C37.6018 87.022 37.3083 86.5494 37.2198 86.0098C37.1312 85.4704 37.2578 84.9288 37.5768 84.4848C37.5782 84.4828 37.5795 84.4811 37.5807 84.4791L38.9232 82.6092C39.5819 81.6943 40.8618 81.4846 41.7779 82.1422C42.6947 82.8004 42.9051 84.0818 42.2469 84.9986L41.4778 86.0699C41.4697 86.0806 41.4618 86.0918 41.4541 86.1029L40.9019 86.8722C40.2441 87.7886 38.9629 87.9992 38.0458 87.3408ZM70.5157 75.8108C69.9401 76.782 68.6811 77.1042 67.7106 76.5286L64.595 74.6831C64.5935 74.6823 64.5923 74.6814 64.5908 74.6807L54.9416 68.9641C54.301 68.5848 53.4745 68.7963 53.0953 69.4365C52.716 70.0769 52.9273 70.9037 53.5677 71.2828L63.2213 77.0019C63.2213 77.0019 63.2213 77.0019 63.2214 77.0021L63.2227 77.0028C64.193 77.5787 64.5145 78.8365 63.9395 79.8074C63.6606 80.278 63.2153 80.6118 62.6854 80.7473C62.1555 80.8828 61.6044 80.8043 61.1338 80.5252L58.5943 79.0209C58.5921 79.0196 58.5903 79.0184 58.5882 79.0171C58.5869 79.0164 58.5855 79.0155 58.5842 79.0148L51.4756 74.8034C50.835 74.4239 50.0087 74.6356 49.6293 75.2758C49.25 75.9162 49.4613 76.743 50.1017 77.1221L57.2105 81.3336C57.212 81.3345 57.2134 81.3354 57.2147 81.3362C57.6851 81.6149 58.0191 82.0601 58.1546 82.59C58.2903 83.1199 58.2112 83.671 57.9325 84.1416C57.6538 84.6122 57.2086 84.9461 56.6785 85.0816C56.1488 85.2172 55.5975 85.1383 55.1271 84.8596L51.3157 82.6017C51.3132 82.6003 51.3108 82.5986 51.3085 82.5972L48.5212 80.9461C47.8812 80.5671 47.0544 80.7782 46.6749 81.4188C46.2958 82.059 46.5071 82.8858 47.1477 83.2651L49.9348 84.9163L49.9386 84.9184C50.9073 85.4948 51.2278 86.7514 50.6532 87.7217C50.0773 88.6931 48.8188 89.0149 47.8477 88.4399L44.5117 86.4635C45.9454 84.3477 45.4392 81.4522 43.3505 79.9526C42.7121 79.4944 41.9975 79.218 41.2687 79.1131C41.591 78.3162 41.6898 77.444 41.547 76.5741C41.3418 75.3242 40.662 74.229 39.6331 73.4903C38.5534 72.7153 37.2553 72.4601 36.0396 72.6756C35.855 71.4548 35.1983 70.3064 34.1183 69.5312C33.0893 68.7925 31.8347 68.4989 30.5844 68.7039C29.5404 68.8754 28.6046 69.3778 27.8941 70.1382C27.5632 69.519 27.0893 68.9643 26.4816 68.5279C24.8711 67.3717 22.7749 67.3725 21.1904 68.3667L20.2348 67.8026L29.4039 52.3256L30.0809 52.7247C31.2196 53.3994 32.4898 53.7417 33.7696 53.7417C34.6524 53.7417 35.5397 53.5788 36.3912 53.2496L39.1642 52.1775C40.8218 51.5371 41.7119 51.5068 43.3856 52.3209C42.3216 53.469 41.6877 55.0008 41.6877 56.6545V63.0504C41.6877 64.6969 43.0262 66.0374 44.6716 66.0386H44.6757C46.3531 66.0386 47.9302 65.3857 49.1169 64.1999C49.8371 63.4803 50.361 62.6165 50.662 61.6739L69.4329 72.7897C69.4949 72.8265 69.5588 72.8576 69.6242 72.8835C69.6781 72.928 69.736 72.969 69.7982 73.0058C70.7688 73.5812 71.091 74.8396 70.5157 75.8108Z" fill="#FF9B00"/>
<path d="M30.5515 35.6952H61.4479C64.2453 35.6952 66.521 33.4194 66.521 30.622V12.2396C66.521 9.44227 64.2453 7.16652 61.4479 7.16652H54.0103V5.03112C54.0103 2.57695 52.0139 0.580078 49.5599 0.580078H42.4391C39.9853 0.580078 37.9888 2.57677 37.9888 5.03112V7.16652H30.5511C27.7538 7.16652 25.478 9.44227 25.478 12.2396V22.3659C25.478 23.1104 26.0814 23.7136 26.8257 23.7136C27.5699 23.7136 28.1733 23.1104 28.1733 22.3659V19.8613C29.6076 21.1484 31.5022 21.9323 33.5764 21.9323H34.6311V23.4148C34.6311 24.1592 35.2345 24.7624 35.9788 24.7624C36.7231 24.7624 37.3264 24.1592 37.3264 23.4148V21.9323H54.6722V23.4148C54.6722 24.1592 55.2754 24.7624 56.0199 24.7624C56.7643 24.7624 57.3675 24.1592 57.3675 23.4148V21.9323H58.4221C60.4964 21.9323 62.3911 21.1484 63.8253 19.8613V30.6219C63.8253 31.933 62.7585 32.9997 61.4475 32.9997H30.5515C29.2403 32.9997 28.1737 31.9329 28.1737 30.6219V28.6661C28.1737 27.9217 27.5703 27.3185 26.826 27.3185C26.0818 27.3185 25.4784 27.9217 25.4784 28.6661V30.6219C25.4784 33.4194 27.7541 35.6952 30.5515 35.6952ZM40.6844 5.03112C40.6844 4.06296 41.4717 3.27539 42.4395 3.27539H49.5603C50.5281 3.27539 51.3153 4.06296 51.3153 5.03112V7.16652H40.6846V5.03112H40.6844ZM58.4227 19.237H57.3681V17.7546C57.3681 17.0102 56.7649 16.407 56.0204 16.407C55.276 16.407 54.6728 17.0102 54.6728 17.7546V19.237H37.327V17.7546C37.327 17.0102 36.7236 16.407 35.9793 16.407C35.2351 16.407 34.6317 17.0102 34.6317 17.7546V19.237H33.5769C30.5977 19.237 28.1739 16.8132 28.1739 13.834V12.2396C28.1739 10.9285 29.2405 9.86184 30.5517 9.86184H61.4481C62.7592 9.86184 63.8259 10.9286 63.8259 12.2396V13.834C63.8259 16.8132 61.4021 19.237 58.4227 19.237Z" fill="#FF9B00"/>
</g>
<defs>
<clipPath id="clip0_10:1040">
<rect width="92" height="92" fill="white"/>
</clipPath>
</defs>
</svg>
