<svg width="55" height="55" viewBox="0 0 55 55" fill="none" xmlns="http://www.w3.org/2000/svg">
<g clip-path="url(#clip0_10:1018)">
<path d="M2.1484 25.3515H47.6478L40.1106 17.8509C39.2696 17.0139 39.2664 15.6536 40.1034 14.8126C40.9405 13.9715 42.3009 13.9684 43.1419 14.8053L54.3679 25.9772C54.3686 25.9778 54.3692 25.9786 54.3698 25.9792C55.2087 26.8162 55.2114 28.1809 54.37 29.0208C54.3693 29.0214 54.3687 29.0222 54.3681 29.0228L43.1421 40.1947C42.3012 41.0315 40.9408 41.0286 40.1037 40.1874C39.2666 39.3464 39.2698 37.9861 40.1109 37.149L47.6478 29.6484H2.1484C0.961811 29.6484 -4.19617e-05 28.6866 -4.19617e-05 27.5C-4.19617e-05 26.3134 0.961811 25.3515 2.1484 25.3515Z" fill="#7C7C7C"/>
</g>
<defs>
<clipPath id="clip0_10:1018">
<rect width="55" height="55" fill="white" transform="matrix(-1 0 0 1 55 0)"/>
</clipPath>
</defs>
</svg>
