<svg width="88" height="88" viewBox="0 0 88 88" fill="none" xmlns="http://www.w3.org/2000/svg">
<path d="M27.1387 31.9527C26.5858 31.5043 25.7742 31.5889 25.3256 32.142C24.8048 32.7841 24.1144 33.1377 23.3812 33.1377C22.6479 33.1377 21.9575 32.7839 21.4367 32.142C20.9883 31.5891 20.1764 31.5045 19.6236 31.9527C19.0707 32.4012 18.986 33.2129 19.4344 33.7659C20.4393 35.0051 21.8779 35.7158 23.3812 35.7158C24.8844 35.7158 26.3228 35.0051 27.328 33.7659C27.7764 33.2129 27.6917 32.4012 27.1387 31.9527Z" fill="#FF9B00"/>
<path d="M17.4898 24.3009C16.7778 24.3009 16.2007 24.8781 16.2007 25.59V27.0628C16.2007 27.7747 16.7778 28.3518 17.4898 28.3518C18.2017 28.3518 18.7788 27.7747 18.7788 27.0628V25.59C18.7788 24.8781 18.2017 24.3009 17.4898 24.3009Z" fill="#FF9B00"/>
<path d="M29.2725 24.3009C28.5606 24.3009 27.9834 24.8781 27.9834 25.59V27.0628C27.9834 27.7747 28.5604 28.3518 29.2725 28.3518C29.9844 28.3518 30.5615 27.7747 30.5615 27.0628V25.59C30.5615 24.8781 29.9844 24.3009 29.2725 24.3009Z" fill="#FF9B00"/>
<path d="M69.85 39.3166C69.2971 38.8682 68.4853 38.9528 68.0369 39.5059C67.5161 40.1478 66.8255 40.5015 66.0925 40.5015C65.3593 40.5015 64.6688 40.1478 64.1481 39.5059C63.6998 38.9529 62.8879 38.8682 62.3349 39.3166C61.782 39.7651 61.6974 40.5768 62.1459 41.1298C63.1507 42.3691 64.5893 43.0797 66.0925 43.0797C67.5957 43.0797 69.0341 42.369 70.0391 41.1298C70.4875 40.5768 70.403 39.7651 69.85 39.3166Z" fill="#FF9B00"/>
<path d="M60.2012 31.6649C59.4893 31.6649 58.9121 32.2421 58.9121 32.954V34.4268C58.9121 35.1387 59.4893 35.7159 60.2012 35.7159C60.9131 35.7159 61.4902 35.1387 61.4902 34.4268V32.954C61.4902 32.2421 60.9131 31.6649 60.2012 31.6649Z" fill="#FF9B00"/>
<path d="M71.9834 31.6649C71.2715 31.6649 70.6943 32.2421 70.6943 32.954V34.4268C70.6943 35.1387 71.2713 35.7159 71.9834 35.7159C72.6953 35.7159 73.2725 35.1387 73.2725 34.4268V32.954C73.2725 32.2421 72.6953 31.6649 71.9834 31.6649Z" fill="#FF9B00"/>
<path d="M84.4128 57.1564L74.3139 53.1168C74.2592 53.095 74.2087 53.0672 74.1574 53.0404C81.1327 51.4532 84.4361 48.7991 84.5828 48.679C84.9315 48.3932 85.1056 47.9459 85.0418 47.4996C85.0272 47.3975 83.5819 37.1638 83.5819 27.0628C83.5819 17.4189 75.736 9.57291 66.092 9.57291C56.448 9.57291 48.6022 17.4187 48.6022 27.0628C48.6022 29.7053 48.4823 32.9372 48.287 35.9968L45.4729 37.4039L37.2125 33.2739C37.1888 33.2621 37.1639 33.2535 37.1397 33.2432C37.5326 32.098 37.7895 30.8904 37.8839 29.6372C39.6117 29.1034 40.8707 27.491 40.8707 25.59C40.8707 24.3097 40.2987 23.1613 39.3979 22.384V13.8074C39.3979 11.4381 38.2008 9.22125 36.2376 7.88922C35.5725 5.41764 33.3519 3.68152 30.7448 3.68152H18.9624C12.5669 3.68152 7.36368 8.88472 7.36368 15.2802V22.3839C6.46288 23.1609 5.89088 24.3096 5.89088 25.5899C5.89088 27.4908 7.14987 29.1032 8.87774 29.637C9.20327 33.9647 11.4335 37.7671 14.7277 40.2143V43.7773L4.06727 46.9754C1.63454 47.7053 0 49.9021 0 52.4421V66.8282C0 67.5402 0.57716 68.1173 1.28907 68.1173H1.47281V83.0291C1.47281 83.741 2.04997 84.3182 2.76188 84.3182C3.47379 84.3182 4.05095 83.741 4.05095 83.0291V68.1173H8.83683V83.0291C8.83683 83.741 9.41399 84.3182 10.1259 84.3182C10.8378 84.3182 11.415 83.741 11.415 83.0291V60.8021C11.415 59.6715 11.0834 58.5767 10.4564 57.6361L8.25297 54.331C7.858 53.7385 7.05757 53.5787 6.46546 53.9733C5.873 54.3681 5.71299 55.1685 6.10796 55.761L8.31141 59.0663C8.65516 59.582 8.837 60.1821 8.837 60.8021V65.5392H2.76188H2.57814V52.4421C2.57814 51.0493 3.4743 49.845 4.8084 49.4447L9.23369 48.1171C10.7747 54.5697 16.6273 59.2805 23.3812 59.2805C25.8075 59.2805 28.1639 58.6822 30.2741 57.5437C31.0453 58.5957 32.2891 59.2805 33.6906 59.2805H33.8744V59.4642C33.8744 63.7857 36.2517 67.5601 39.7656 69.5554V71.658C39.7656 71.737 39.715 71.8072 39.6399 71.8322L34.8314 73.4352C32.4971 74.2132 30.9287 76.3892 30.9287 78.8498V83.0291C30.9287 83.741 31.5059 84.3182 32.2178 84.3182C32.9297 84.3182 33.5069 83.741 33.5069 83.0291V78.8498C33.5069 77.5007 34.3668 76.3076 35.6466 75.8811L37.0606 75.4097C38.9313 78.1996 42.0775 79.8999 45.4729 79.8999C48.8719 79.8999 52.0152 78.2006 53.8855 75.4098L55.2992 75.8811C56.579 76.3077 57.4389 77.5007 57.4389 78.8498V83.0291C57.4389 83.741 58.0161 84.3182 58.728 84.3182C59.4399 84.3182 60.017 83.741 60.017 83.0291V78.8498C60.017 76.3892 58.4487 74.2132 56.1144 73.4353L51.3058 71.8324C51.2307 71.8073 51.1802 71.7374 51.1802 71.6581V69.5556C53.8111 68.0616 55.8025 65.5701 56.6378 62.5979C59.0738 65.1468 62.4761 66.6449 66.0918 66.6449C71.8002 66.6449 76.8088 62.9548 78.5341 57.5822L83.4547 59.5503C84.6498 60.0283 85.4219 61.1689 85.4219 62.4557V68.485H85.2381H80.636V66.8284C80.636 66.1165 80.0588 65.5393 79.3469 65.5393C78.635 65.5393 78.0578 66.1165 78.0578 66.8284V83.0293C78.0578 83.7412 78.635 84.3184 79.3469 84.3184C80.0588 84.3184 80.636 83.7412 80.636 83.0293V71.0631H83.9491V83.0293C83.9491 83.7412 84.5262 84.3184 85.2381 84.3184C85.95 84.3184 86.5272 83.7412 86.5272 83.0293V71.0631H86.7109C87.0528 71.0631 87.3806 70.9273 87.6224 70.6857C87.8642 70.4438 88 70.1161 88 69.774V62.4557C88.0005 60.1082 86.5923 58.0282 84.4128 57.1564ZM51.1805 27.0627C51.1805 18.8403 57.87 12.1509 66.0923 12.1509C74.3147 12.1509 81.004 18.8403 81.004 27.0627C81.004 35.7189 82.0464 44.4692 82.3852 47.0826C81.23 47.8384 78.2723 49.5028 73.2726 50.5966V48.5453C73.9574 48.1572 74.6129 47.7143 75.2293 47.2162C77.7658 45.1659 79.5583 42.2943 80.2761 39.1308C80.5153 38.0767 80.6367 36.9895 80.6367 35.8997C80.6367 28.6137 75.3675 27.5676 70.2717 26.556C67.0292 25.9123 63.6764 25.2466 61.0065 23.1107C60.6196 22.8012 60.0896 22.7409 59.6429 22.9555C59.1962 23.1702 58.9122 23.6217 58.9122 24.1174C58.9122 24.1516 58.856 27.5434 53.9974 28.7581C53.3067 28.9308 52.8868 29.6307 53.0595 30.3214C53.2321 31.0122 53.9321 31.4318 54.6227 31.2594C58.6893 30.2427 60.3482 27.9614 61.0247 26.2475C63.8201 27.904 66.9515 28.5255 69.7696 29.085C75.2162 30.1662 78.0585 30.9605 78.0585 35.8998C78.0585 36.7981 77.9587 37.6932 77.7619 38.5605C77.1715 41.1617 75.6966 43.5236 73.6085 45.2114C71.46 46.948 68.8609 47.8659 66.0923 47.8659C63.5685 47.8659 61.1665 47.0917 59.1281 45.6289C58.3813 43.5906 57.1818 41.7258 55.599 40.1892V34.427C55.599 33.9802 55.3676 33.5653 54.9876 33.3305C54.6076 33.0957 54.1332 33.0742 53.7334 33.2741L50.9502 34.6656C51.1029 31.9811 51.1805 29.4287 51.1805 27.0627ZM53.0208 36.5124V41.1776L48.3554 38.8451L53.0208 36.5124ZM37.9253 36.5124L42.5905 38.8451L37.9253 41.1776V36.5124ZM30.9287 50.6274V51.8517C30.0058 52.6486 29.4559 53.815 29.4559 55.0456C27.62 56.1303 25.5342 56.7023 23.381 56.7023C17.7737 56.7023 12.9225 52.7564 11.7089 47.3746L14.8936 46.4192C15.6792 50.3875 19.1857 53.3893 23.3812 53.3893C26.7126 53.3893 29.6084 51.4957 31.0539 48.7294C30.9712 49.3553 30.9287 49.9892 30.9287 50.6274ZM17.3062 44.7341V41.7481C19.1559 42.6023 21.2136 43.0796 23.3812 43.0796C25.5485 43.0796 27.6064 42.6022 29.4561 41.7483V44.736C29.4561 48.0857 26.731 50.811 23.3812 50.811C20.037 50.811 17.3156 48.0946 17.3065 44.7525C17.3065 44.7463 17.3062 44.7401 17.3062 44.7341ZM23.3812 40.5015C16.7828 40.5015 11.415 35.1336 11.415 28.5355C11.415 27.8236 10.8378 27.2464 10.1259 27.2464C9.21255 27.2464 8.46936 26.5032 8.46936 25.5899C8.46936 24.6765 9.21238 23.9333 10.1259 23.9333H13.0715C13.6263 23.9333 14.1189 23.5784 14.2944 23.0519L15.4776 19.5024C18.4399 19.4355 27.6231 19.019 32.7943 16.4333C33.4311 16.1149 33.6892 15.3407 33.3708 14.7039C33.0524 14.0671 32.2783 13.809 31.6413 14.1275C26.093 16.9015 14.6588 16.9369 14.544 16.9369C13.9892 16.9371 13.4966 17.292 13.3212 17.8185L12.1424 21.3554H10.1259C10.0644 21.3554 10.0032 21.3574 9.94217 21.36V15.2802C9.94217 10.3063 13.9888 6.25966 18.9627 6.25966H30.7452C32.2845 6.25966 33.5777 7.36912 33.8206 8.89744C33.8823 9.28588 34.1179 9.62482 34.4604 9.81801C35.9159 10.6389 36.8201 12.1674 36.8201 13.8073V21.3597C36.7591 21.3569 36.6981 21.355 36.6364 21.355H35.1636C34.4517 21.355 33.8745 21.9322 33.8745 22.6441C33.8745 23.356 34.4517 23.9332 35.1636 23.9332H36.6364C37.5498 23.9332 38.2929 24.6762 38.2929 25.5897C38.2929 26.5032 37.5499 27.2462 36.6364 27.2462C35.9245 27.2462 35.3473 27.8234 35.3473 28.5353C35.3473 35.1335 29.9795 40.5015 23.3812 40.5015ZM32.0341 44.7363V40.2143C33.3164 39.2616 34.4372 38.1043 35.3472 36.7891V40.189C33.9036 41.5905 32.7783 43.2647 32.025 45.0949C32.03 44.9758 32.0341 44.8565 32.0341 44.7363ZM51.3132 74.5522C49.8941 76.2859 47.7621 77.3216 45.4731 77.3216C43.1868 77.3216 41.0534 76.2852 39.6337 74.552L40.4553 74.2782C41.5849 73.9018 42.3439 72.8487 42.3439 71.6581V70.6307C43.3401 70.9103 44.3889 71.0631 45.4732 71.0631C46.5576 71.0631 47.6064 70.9103 48.6026 70.6307V71.6581C48.6024 72.8485 49.3612 73.9016 50.491 74.278L51.3132 74.5522ZM55.7829 56.7023C55.071 56.7023 54.4938 57.2795 54.4938 57.9914V59.2731C54.4938 59.2843 54.4936 59.2954 54.4938 59.3066V59.4642C54.4936 64.4381 50.447 68.4848 45.4731 68.4848C40.4991 68.4848 36.4527 64.4381 36.4527 59.4642V57.9914C36.4527 57.2795 35.8755 56.7023 35.1636 56.7023H33.6908C32.7774 56.7023 32.0342 55.9593 32.0342 55.0458C32.0342 54.458 32.3453 53.926 32.8663 53.6228C32.9827 53.5551 33.0839 53.4694 33.1716 53.3724C36.3581 53.2801 46.6877 52.6804 53.4766 48.801C54.0947 48.4478 54.3095 47.6605 53.9563 47.0422C53.6031 46.424 52.8154 46.2093 52.1975 46.5625C46.2503 49.9609 36.905 50.6413 33.5071 50.7773V50.6274C33.5071 48.2299 34.2331 45.908 35.5486 43.9505C35.6516 44.1136 35.7892 44.2553 35.9587 44.3599C36.1658 44.4878 36.4008 44.5524 36.6364 44.5524C36.8334 44.5524 37.0309 44.5072 37.2129 44.4163L45.4732 40.2861L53.7336 44.4163C53.9156 44.5072 54.1131 44.5524 54.3101 44.5524C54.5459 44.5524 54.7808 44.4878 54.9878 44.3599C55.1571 44.2553 55.2947 44.1135 55.3977 43.9505C56.7132 45.908 57.4392 48.2299 57.4392 50.6274V52.5087C57.4392 52.9677 57.6831 53.392 58.08 53.6228C58.6011 53.9262 58.9122 54.458 58.9122 55.0458C58.9122 55.9592 58.169 56.7023 57.2557 56.7023H55.7829ZM66.0923 64.0664C62.5235 64.0664 59.2125 62.2495 57.2851 59.2798C59.6064 59.2638 61.4902 57.3709 61.4902 55.046C61.4902 53.8153 60.9404 52.6488 60.0174 51.8518V50.6276C60.0174 50.1087 59.9894 49.5927 59.9345 49.0815C61.846 49.9777 63.9329 50.4437 66.0923 50.4437C67.6641 50.4437 69.2186 50.1833 70.6945 49.691V51.5787C70.6945 53.3203 71.7393 54.8638 73.3563 55.5106L76.1361 56.6224C74.8039 61.0273 70.7356 64.0664 66.0923 64.0664Z" fill="#FF9B00"/>
<path d="M49.231 61.4087C48.6781 60.9603 47.8663 61.0448 47.4179 61.5979C46.8969 62.24 46.2065 62.5936 45.4735 62.5936C44.7404 62.5936 44.0498 62.24 43.529 61.5979C43.0806 61.045 42.2687 60.9603 41.7159 61.4087C41.163 61.8571 41.0782 62.6689 41.5267 63.2218C42.5318 64.4609 43.9702 65.1717 45.4735 65.1717C46.9767 65.1717 48.4151 64.461 49.4202 63.222C49.8685 62.669 49.7838 61.8571 49.231 61.4087Z" fill="#FF9B00"/>
<path d="M41.0781 57.8135C41.7901 57.8135 42.3672 57.2364 42.3672 56.5244C42.3672 55.8125 41.7901 55.2354 41.0781 55.2354C40.3662 55.2354 39.7891 55.8125 39.7891 56.5244C39.7891 57.2364 40.3662 57.8135 41.0781 57.8135Z" fill="#FF9B00"/>
<path d="M49.8443 57.8135C50.5562 57.8135 51.1333 57.2364 51.1333 56.5244C51.1333 55.8125 50.5562 55.2354 49.8443 55.2354C49.1323 55.2354 48.5552 55.8125 48.5552 56.5244C48.5552 57.2364 49.1323 57.8135 49.8443 57.8135Z" fill="#FF9B00"/>
</svg>
