<svg width="66" height="66" viewBox="0 0 66 66" fill="none" xmlns="http://www.w3.org/2000/svg">
<g clip-path="url(#clip0_10:981)">
<path d="M33.4233 24.494C29.7052 24.494 26.6909 27.5081 26.6909 31.2264C26.6909 34.9445 29.705 37.9588 33.4233 37.9588C37.1414 37.9588 40.1557 34.9447 40.1557 31.2264C40.1557 27.5081 37.1416 24.494 33.4233 24.494ZM33.4233 34.7528C31.4757 34.7528 29.8968 33.1739 29.8968 31.2263C29.8968 29.2786 31.4757 27.6998 33.4233 27.6998C35.3709 27.6998 36.9498 29.2786 36.9498 31.2263C36.9498 33.1739 35.3709 34.7528 33.4233 34.7528Z" fill="white"/>
<path d="M60.2728 9.1057L16.5125 4.13671C14.8142 3.89525 13.0934 4.39106 11.7839 5.49927C10.4746 6.51451 9.63532 8.01943 9.45967 9.66686L8.65827 16.2389H6.17355C2.64704 16.2389 0.00216593 19.3646 0.00216593 22.8911V55.6711C-0.0866564 59.0339 2.56743 61.8322 5.9304 61.921C6.0114 61.9232 6.09255 61.9236 6.17355 61.9226H50.1742C53.7007 61.9226 56.9066 59.1976 56.9066 55.6711V54.3888C57.9999 54.1775 59.0371 53.7408 59.9521 53.1065C61.2507 52.0131 62.0822 50.4648 62.2764 48.7786L65.9632 16.2389C66.3391 12.7043 63.8025 9.52465 60.2728 9.1057ZM53.7007 55.6711C53.7007 57.4344 51.9374 58.7167 50.1742 58.7167H6.17355C4.58073 58.7635 3.25162 57.5102 3.20483 55.9173C3.20238 55.8353 3.20345 55.7532 3.20805 55.6711V49.7403L15.6309 40.6035C17.1232 39.4578 19.2252 39.5596 20.6 40.8439L29.3361 48.538C30.6627 49.6519 32.3327 50.2746 34.0648 50.3013C35.4191 50.3178 36.7511 49.9572 37.9119 49.2593L53.7008 40.1226V55.6711H53.7007ZM53.7007 36.3557L36.2286 46.5344C34.7283 47.4232 32.8293 47.2623 31.4999 46.1337L22.6838 38.3594C20.157 36.1882 16.4639 36.055 13.7874 38.0387L3.20805 45.7328V22.8911C3.20805 21.1278 4.4103 19.4448 6.17355 19.4448H50.1742C52.058 19.5229 53.5793 21.0097 53.7007 22.8911V36.3557ZM62.7604 15.8062C62.7593 15.8168 62.7584 15.8275 62.7572 15.8381L58.9903 48.3777C58.9967 49.2215 58.612 50.0205 57.9484 50.5417C57.6277 50.8623 56.9064 51.0226 56.9064 51.1829V22.8911C56.7799 19.2399 53.8265 16.3216 50.174 16.2389H11.864L12.5853 9.98748C12.7418 9.17795 13.165 8.44436 13.7876 7.90361C14.4905 7.41761 15.3403 7.19103 16.1921 7.26237L59.8722 12.3116C61.6346 12.4789 62.9278 14.0435 62.7604 15.8062Z" fill="white"/>
</g>
<defs>
<clipPath id="clip0_10:981">
<rect width="66" height="66" fill="white"/>
</clipPath>
</defs>
</svg>
