<svg width="88" height="88" viewBox="0 0 88 88" fill="none" xmlns="http://www.w3.org/2000/svg">
<g clip-path="url(#clip0_10:1030)">
<path d="M87.9653 70.7925V63.0491H79.7057V57.8869H76.9525V53.585H79.7057V45.8417H59.1182V48.4228H77.1246V51.0039H23.7199V53.585H74.3712V57.8869H18.1889C17.0027 57.8869 16.0379 56.9221 16.0379 55.736C16.0379 54.5499 17.0027 53.585 18.1889 53.585H21.1387V51.0039H18.1889C15.5797 51.0039 13.4568 53.1266 13.4568 55.736C13.4568 58.3453 15.5797 60.468 18.1889 60.468H77.1244V63.0491H32.6431V65.6303H85.384V68.2114H12.5104C8.47783 68.2114 5.19722 71.492 5.19722 75.5246C5.19722 79.5571 8.47783 82.8377 12.5104 82.8377H73.3018V80.2566H12.5106C9.90123 80.2566 7.77851 78.1339 7.77851 75.5246C7.77851 72.9152 9.90123 70.7925 12.5106 70.7925H82.631V75.0944H25.4162V77.6755H82.631V80.2566H75.8831V82.8377H85.3842V85.4189H12.5106C7.05477 85.4189 2.61628 80.9804 2.61628 75.5246C2.61628 70.0688 7.05477 65.6303 12.5106 65.6303H30.0622V63.0491H18.189C14.1565 63.0491 10.8759 59.7685 10.8759 55.736C10.8759 51.7034 14.1565 48.4228 18.189 48.4228H56.5371V45.8417H18.189C12.7332 45.8417 8.29474 50.2802 8.29474 55.736C8.29474 58.6513 9.56275 61.2754 11.5755 63.0879C5.13201 63.5681 0.0351562 68.9604 0.0351562 75.5246C0.0351562 82.4036 5.63154 88 12.5106 88H87.9653V80.2566H85.2121V70.7925H87.9653Z" fill="#FF9B00"/>
<path d="M20.2539 75.0945H22.835V77.6756H20.2539V75.0945Z" fill="#FF9B00"/>
<path d="M23.7816 38.3587L24.3563 38.7419C24.5803 38.8913 30.0045 42.4002 44.0003 42.4002C57.9962 42.4002 63.4203 38.8913 63.6444 38.7419L64.2191 38.3587V16.6301L71.9625 14.049V26.2335C69.9788 26.7968 68.521 28.6234 68.521 30.7852V37.238H77.9851V30.7852C77.9851 28.6234 76.5273 26.7968 74.5436 26.2335V13.1887L79.0549 11.6849L65.5012 7.16691L64.6849 9.61553L70.8927 11.6847L44.0003 20.649L17.108 11.6849L44.0003 2.72084L62.2363 8.79955L63.0526 6.35093L44.0003 0L8.9458 11.6849L23.7816 16.6301V38.3587ZM75.404 30.7852V34.6569H71.1021V30.7852C71.1021 29.5991 72.0669 28.6342 73.253 28.6342C74.4391 28.6342 75.404 29.5991 75.404 30.7852ZM26.3627 17.4905L44.0003 23.3698L61.638 17.4905V27.6018H58.4546V30.1829H61.638V32.764H56.0456V35.3452H61.638V36.9011C59.9747 37.711 54.6234 39.8191 44.0003 39.8191C33.3692 39.8191 28.0177 37.7077 26.3627 36.9017V17.4905Z" fill="#FF9B00"/>
<path d="M15.0918 75.0945H17.6729V77.6756H15.0918V75.0945Z" fill="#FF9B00"/>
<path d="M50.8833 32.764H53.4644V35.3452H50.8833V32.764Z" fill="#FF9B00"/>
</g>
<defs>
<clipPath id="clip0_10:1030">
<rect width="88" height="88" fill="white"/>
</clipPath>
</defs>
</svg>
