<svg width="74" height="74" viewBox="0 0 74 74" fill="none" xmlns="http://www.w3.org/2000/svg">
<path d="M50.0078 0C49.2097 0 48.5625 0.647211 48.5625 1.44531V8.09375C48.5625 8.89185 49.2097 9.53906 50.0078 9.53906C50.8059 9.53906 51.4531 8.89185 51.4531 8.09375V1.44531C51.4531 0.647211 50.8059 0 50.0078 0Z" fill="white"/>
<path d="M16.7656 45.0938C15.9678 45.0938 15.3203 45.7412 15.3203 46.5391C15.3203 47.3369 15.9678 47.9844 16.7656 47.9844C17.5634 47.9844 18.2109 47.3369 18.2109 46.5391C18.2109 45.7412 17.5634 45.0938 16.7656 45.0938Z" fill="white"/>
<path d="M70.2422 42.2031C70.2422 39.0153 67.6487 36.4219 64.4609 36.4219H53.6714C55.3417 32.1433 56.0179 27.1073 55.8875 22.6243C55.8626 21.7689 55.8298 21.2741 55.7854 20.9627C55.7107 17.8398 53.1465 15.3203 50.0078 15.3203C46.82 15.3203 44.2266 17.9138 44.2266 21.1016V22.5469C44.2266 31.6879 32.4886 36.8238 23.6303 39.0262C22.9605 37.495 21.4317 36.4219 19.6562 36.4219H5.20312C4.40502 36.4219 3.75781 37.0691 3.75781 37.8672V72.5547C3.75781 73.3528 4.40502 74 5.20312 74H19.6562C21.4198 74 22.9399 72.941 23.6166 71.426C24.35 71.6142 25.0309 71.792 25.6595 71.9562C30.7058 73.2742 33.4856 74 40.2462 74H55.7891C58.9768 74 61.5703 71.4065 61.5703 68.2188C61.5703 67.0301 61.2094 65.9245 60.5918 65.0047C62.8246 64.2238 64.4609 62.0905 64.4609 59.5469C64.4609 58.3626 64.1089 57.2533 63.4932 56.3293C65.716 55.5471 67.3516 53.4188 67.3516 50.875C67.3516 49.6864 66.9907 48.5807 66.3731 47.6609C68.6058 46.88 70.2422 44.7467 70.2422 42.2031ZM21.1016 69.6641C21.1016 70.461 20.4532 71.1094 19.6562 71.1094H6.64844V39.3125H19.6562C20.4532 39.3125 21.1016 39.9609 21.1016 40.7578V69.6641ZM64.4609 45.0938C61.3609 45.0938 60.6219 45.0938 57.2344 45.0938C56.4363 45.0938 55.7891 45.741 55.7891 46.5391C55.7891 47.3372 56.4363 47.9844 57.2344 47.9844H61.5703C63.1642 47.9844 64.4609 49.2811 64.4609 50.875C64.4609 52.4715 63.1668 53.7656 61.5703 53.7656H54.3438C53.5456 53.7656 52.8984 54.4128 52.8984 55.2109C52.8984 56.009 53.5456 56.6562 54.3438 56.6562H58.6797C60.2546 56.6562 61.5703 57.9144 61.5703 59.5469C61.5703 61.1434 60.2762 62.4375 58.6797 62.4375C55.5796 62.4375 54.8406 62.4375 51.4531 62.4375C50.655 62.4375 50.0078 63.0847 50.0078 63.8828C50.0078 64.6809 50.655 65.3281 51.4531 65.3281H55.7891C57.383 65.3281 58.6797 66.6249 58.6797 68.2188C58.6797 69.8126 57.383 71.1094 55.7891 71.1094H40.2462C33.8569 71.1094 31.3614 70.4577 26.39 69.1594C25.6617 68.9692 24.8628 68.7606 23.9922 68.5386V41.9177C34.4516 39.4262 47.1172 33.3449 47.1172 22.5469V21.1016C47.1172 19.5077 48.4139 18.2109 50.0078 18.2109C51.5988 18.2109 52.8954 19.5056 52.8984 21.0971V21.1016C52.8984 21.7297 53.6824 29.4386 50.5388 36.4219H45.6719C44.8738 36.4219 44.2266 37.0691 44.2266 37.8672C44.2266 38.6653 44.8738 39.3125 45.6719 39.3125C46.6811 39.3125 62.8136 39.3125 64.4609 39.3125C66.0548 39.3125 67.3516 40.6092 67.3516 42.2031C67.3516 43.7996 66.0574 45.0938 64.4609 45.0938Z" fill="white"/>
<path d="M16.7656 50.875C15.9675 50.875 15.3203 51.5222 15.3203 52.3203V63.8828C15.3203 64.6809 15.9675 65.3281 16.7656 65.3281C17.5637 65.3281 18.2109 64.6809 18.2109 63.8828V52.3203C18.2109 51.5222 17.5637 50.875 16.7656 50.875Z" fill="white"/>
<path d="M38.4453 18.2109H32.6641C31.866 18.2109 31.2188 18.8581 31.2188 19.6562C31.2188 20.4544 31.866 21.1016 32.6641 21.1016H38.4453C39.2434 21.1016 39.8906 20.4544 39.8906 19.6562C39.8906 18.8581 39.2434 18.2109 38.4453 18.2109Z" fill="white"/>
<path d="M67.3516 18.2109H61.5703C60.7722 18.2109 60.125 18.8581 60.125 19.6562C60.125 20.4544 60.7722 21.1016 61.5703 21.1016H67.3516C68.1497 21.1016 68.7969 20.4544 68.7969 19.6562C68.7969 18.8581 68.1497 18.2109 67.3516 18.2109Z" fill="white"/>
<path d="M63.2934 6.37082C62.7288 5.80657 61.814 5.80657 61.2493 6.37082L57.1621 10.458C56.5977 11.0224 56.5977 11.9376 57.1621 12.5021C57.7268 13.0665 58.6415 13.0664 59.2062 12.5021L63.2934 8.41492C63.8578 7.85053 63.8578 6.93536 63.2934 6.37082Z" fill="white"/>
<path d="M42.8534 10.458L38.7662 6.37082C38.2017 5.80657 37.2868 5.80657 36.7221 6.37082C36.1577 6.93521 36.1577 7.85039 36.7221 8.41492L40.8093 12.5021C41.3742 13.0665 42.2889 13.0664 42.8534 12.5021C43.4178 11.9377 43.4178 11.0226 42.8534 10.458Z" fill="white"/>
</svg>
