<svg width="126" height="126" viewBox="0 0 126 126" fill="none" xmlns="http://www.w3.org/2000/svg">
<path d="M111.461 30.5318L69.4073 23.5426C68.4921 23.3893 67.6265 24.0088 67.4745 24.9244L64.461 43.0558L52.2188 27.1441C51.6531 26.4091 50.598 26.2709 49.863 26.8371L16.0757 52.8321C15.3403 53.3979 15.2025 54.4525 15.7687 55.1879L36.4722 82.0977C36.5268 82.1687 36.5923 82.2258 36.6557 82.2855V105.024C36.6557 108.253 39.2828 110.88 42.5118 110.88H101.359C104.588 110.88 107.215 108.253 107.215 105.024V66.3221C107.215 66.3196 107.216 66.3175 107.217 66.315L112.842 32.4642C112.994 31.549 112.376 30.6838 111.461 30.5318ZM103.855 73.9199H100.428C100.005 71.3029 97.7367 69.2957 95.0021 69.2957C92.2679 69.2957 89.9995 71.3029 89.577 73.9199H86.3165C83.1459 68.8526 77.5179 65.4733 71.1125 65.4733C64.6983 65.4733 59.0635 68.8618 55.8951 73.9405C55.8266 73.9321 55.7594 73.9199 55.6888 73.9199H40.0149V61.296C40.0149 59.9196 41.1346 58.7999 42.5109 58.7999H101.359C102.735 58.7999 103.855 59.9196 103.855 61.296V73.9199ZM97.145 74.7981C97.145 75.9792 96.1836 76.9405 95.0025 76.9405C93.8215 76.9405 92.8601 75.9796 92.8601 74.7981C92.8601 73.6167 93.8211 72.6557 95.0025 72.6557C96.184 72.6557 97.145 73.6171 97.145 74.7981ZM71.1125 68.8333C79.1437 68.8333 85.6777 75.3672 85.6777 83.3985C85.6777 91.4297 79.1437 97.9636 71.1125 97.9636C63.0813 97.9636 56.5473 91.4297 56.5473 83.3985C56.5473 75.3672 63.0813 68.8333 71.1125 68.8333ZM58.7255 55.4399H56.8149V52.0799C56.8149 51.1521 56.0626 50.3999 55.1349 50.3999H45.0549C44.1271 50.3999 43.3749 51.1521 43.3749 52.0799V55.4399H42.5109C39.282 55.4399 36.6549 58.067 36.6549 61.296V67.8702L27.1133 55.4685L49.5821 38.1817L60.6432 52.5583L58.7255 55.4399ZM53.4549 55.4399H46.7349V53.7599H53.4549V55.4399ZM100.082 55.4399H88.5627L83.0111 48.4805C81.429 46.4973 79.0665 45.3599 76.5297 45.3599H73.0197L75.0051 33.4147L102.97 38.0624L100.082 55.4399ZM69.8756 48.7199H76.5297C78.0383 48.7199 79.4436 49.3965 80.3844 50.5759L84.2644 55.4399H62.7612L65.771 50.9186C66.6874 49.5418 68.2216 48.7199 69.8756 48.7199ZM19.4554 54.4705L50.58 30.5242L63.9284 47.8736C63.5786 48.2344 63.2581 48.6296 62.9737 49.0567L62.6092 49.6044L51.2205 34.8015C50.9487 34.4483 50.5476 34.2177 50.1062 34.1602C49.6644 34.1031 49.2179 34.2228 48.8647 34.4945L23.7331 53.83C22.9977 54.3958 22.86 55.4504 23.4261 56.1858L36.6553 73.3802V76.825L19.4554 54.4705ZM101.359 107.52H42.5113C41.135 107.52 40.0153 106.4 40.0153 105.024V77.2799H54.2638C53.5679 79.1901 53.1873 81.2506 53.1873 83.3985C53.1873 93.2823 61.2286 101.324 71.1125 101.324C80.9964 101.324 89.0377 93.2823 89.0377 83.3985C89.0377 81.2506 88.6572 79.1901 87.9612 77.2799H90.0982C91.0075 79.0691 92.8618 80.3005 95.0025 80.3005C97.1433 80.3005 98.9976 79.0691 99.9069 77.2799H103.855V105.024C103.855 106.4 102.735 107.52 101.359 107.52ZM105.354 57.0267C104.8 56.508 104.147 56.0968 103.425 55.8234L106.561 36.9561C106.634 36.5168 106.529 36.0661 106.27 35.7037C106.011 35.3412 105.618 35.0968 105.179 35.0237L73.8988 29.8254C72.9832 29.6716 72.118 30.2916 71.966 31.2072L69.6123 45.3687C68.8596 45.3922 68.1242 45.5149 67.4224 45.732L70.5136 27.1332L109.253 33.5713L105.354 57.0267Z" fill="#FF9B00"/>
<path d="M92.0946 53.7599H98.8146C99.7423 53.7599 100.495 53.0077 100.495 52.0799C100.495 51.1521 99.7423 50.3999 98.8146 50.3999H92.0946C91.1668 50.3999 90.4146 51.1521 90.4146 52.0799C90.4146 53.0077 91.1668 53.7599 92.0946 53.7599Z" fill="#FF9B00"/>
<path d="M23.2147 23.5201C24.1424 23.5201 24.8947 22.7679 24.8947 21.8401V16.8001C24.8947 15.8723 24.1424 15.1201 23.2147 15.1201C22.2869 15.1201 21.5347 15.8723 21.5347 16.8001V21.8401C21.5347 22.7679 22.2869 23.5201 23.2147 23.5201Z" fill="#FF9B00"/>
<path d="M23.2147 26.8799C22.2869 26.8799 21.5347 27.6321 21.5347 28.5599V33.5999C21.5347 34.5277 22.2869 35.2799 23.2147 35.2799C24.1424 35.2799 24.8947 34.5277 24.8947 33.5999V28.5599C24.8947 27.6321 24.1424 26.8799 23.2147 26.8799Z" fill="#FF9B00"/>
<path d="M21.5348 25.2C21.5348 24.2722 20.7825 23.52 19.8548 23.52H14.8148C13.887 23.52 13.1348 24.2722 13.1348 25.2C13.1348 26.1278 13.887 26.88 14.8148 26.88H19.8548C20.7825 26.88 21.5348 26.1278 21.5348 25.2Z" fill="#FF9B00"/>
<path d="M26.5745 26.88H31.6145C32.5423 26.88 33.2945 26.1278 33.2945 25.2C33.2945 24.2722 32.5423 23.52 31.6145 23.52H26.5745C25.6468 23.52 24.8945 24.2722 24.8945 25.2C24.8945 26.1278 25.6468 26.88 26.5745 26.88Z" fill="#FF9B00"/>
<path d="M22.3746 85.6802C19.1322 85.6802 16.4946 88.3178 16.4946 91.5602C16.4946 94.8026 19.1322 97.4402 22.3746 97.4402C25.617 97.4402 28.2546 94.8026 28.2546 91.5602C28.2546 88.3178 25.617 85.6802 22.3746 85.6802ZM22.3746 94.0802C20.9848 94.0802 19.8546 92.9499 19.8546 91.5602C19.8546 90.1704 20.9848 89.0402 22.3746 89.0402C23.7644 89.0402 24.8946 90.1704 24.8946 91.5602C24.8946 92.9499 23.7644 94.0802 22.3746 94.0802Z" fill="#FF9B00"/>
<path d="M48.4149 21.84C49.3427 21.84 50.0949 21.0878 50.0949 20.16C50.0949 19.2321 49.3427 18.48 48.4149 18.48C47.487 18.48 46.7349 19.2321 46.7349 20.16C46.7349 21.0878 47.487 21.84 48.4149 21.84Z" fill="#FF9B00"/>
<path d="M28.2547 109.2C29.1825 109.2 29.9347 108.448 29.9347 107.52C29.9347 106.592 29.1825 105.84 28.2547 105.84C27.3269 105.84 26.5747 106.592 26.5747 107.52C26.5747 108.448 27.3269 109.2 28.2547 109.2Z" fill="#FF9B00"/>
<path d="M105.534 20.16C106.462 20.16 107.215 19.4079 107.215 18.48C107.215 17.5522 106.462 16.8 105.534 16.8C104.607 16.8 103.854 17.5522 103.854 18.48C103.854 19.4079 104.607 20.16 105.534 20.16Z" fill="#FF9B00"/>
<path d="M71.1123 94.8806C77.4434 94.8806 82.5939 89.7297 82.5939 83.399C82.5939 77.0684 77.443 71.9175 71.1123 71.9175C64.7813 71.9175 59.6304 77.0684 59.6304 83.399C59.6304 89.7297 64.7808 94.8806 71.1123 94.8806ZM71.1123 75.2771C75.5908 75.2771 79.2339 78.9206 79.2339 83.3986C79.2339 87.8766 75.5904 91.5202 71.1123 91.5202C66.6339 91.5202 62.9904 87.8766 62.9904 83.3986C62.9904 78.9206 66.6339 75.2771 71.1123 75.2771Z" fill="#FF9B00"/>
</svg>
