<svg width="96" height="96" viewBox="0 0 96 96" fill="none" xmlns="http://www.w3.org/2000/svg">
<path d="M15.6145 92.5302H3.46988V80.3856C3.46988 79.4272 2.69309 78.6506 1.73494 78.6506C0.77679 78.6506 0 79.4272 0 80.3856V94.2651C0 95.2235 0.77679 96 1.73494 96H15.6145C16.5726 96 17.3494 95.2235 17.3494 94.2651C17.3494 93.3067 16.5726 92.5302 15.6145 92.5302Z" fill="#FFB829"/>
<path d="M94.2648 78.6506C93.3067 78.6506 92.5299 79.4272 92.5299 80.3856V92.5302H80.3853C79.4272 92.5302 78.6504 93.3067 78.6504 94.2651C78.6504 95.2235 79.4272 96 80.3853 96H94.2648C95.223 96 95.9998 95.2235 95.9998 94.2651V80.3856C95.9998 79.4272 95.223 78.6506 94.2648 78.6506Z" fill="#FFB829"/>
<path d="M15.6145 0H1.73494C0.77679 0 0 0.776559 0 1.73494V15.6145C0 16.5728 0.77679 17.3494 1.73494 17.3494C2.69309 17.3494 3.46988 16.5728 3.46988 15.6145V3.46988H15.6145C16.5726 3.46988 17.3494 2.69332 17.3494 1.73494C17.3494 0.776559 16.5726 0 15.6145 0Z" fill="#FFB829"/>
<path d="M94.2648 0H80.3853C79.4272 0 78.6504 0.776559 78.6504 1.73494C78.6504 2.69332 79.4272 3.46988 80.3853 3.46988H92.5299V15.6145C92.5299 16.5728 93.3067 17.3494 94.2648 17.3494C95.223 17.3494 95.9998 16.5728 95.9998 15.6145V1.73494C95.9998 0.776559 95.223 0 94.2648 0Z" fill="#FFB829"/>
<path d="M61.8797 46.265H49.7351V34.1204C49.7351 33.1621 48.9583 32.3855 48.0002 32.3855C47.0421 32.3855 46.2653 33.1621 46.2653 34.1204V46.265H34.1207C33.1625 46.265 32.3857 47.0416 32.3857 48C32.3857 48.9583 33.1625 49.7349 34.1207 49.7349H46.2653V61.8795C46.2653 62.8379 47.0421 63.6144 48.0002 63.6144C48.9583 63.6144 49.7351 62.8379 49.7351 61.8795V49.7349H61.8797C62.8379 49.7349 63.6147 48.9583 63.6147 48C63.6147 47.0416 62.8379 46.265 61.8797 46.265Z" fill="#FFB829"/>
</svg>
