<svg width="60" height="60" viewBox="0 0 60 60" fill="none" xmlns="http://www.w3.org/2000/svg">
<path d="M30 0C13.4305 0 0 13.4324 0 30C0 46.5695 13.4305 60 30 60C46.5676 60 60 46.5695 60 30C59.9981 13.4324 46.5676 0 30 0ZM30 54.3749C16.5376 54.3749 5.62509 43.4624 5.62509 30C5.62509 16.5376 16.5376 5.62698 30 5.62698C43.4605 5.62698 54.3749 16.5376 54.3749 30C54.3749 43.4624 43.4605 54.3749 30 54.3749ZM41.2856 26.2501H33.748V18.75C33.748 17.7151 32.908 16.8751 31.8731 16.8751H28.1232C27.0864 16.8751 26.2482 17.7151 26.2482 18.75V26.2501H18.7519C17.7132 26.2501 16.8732 27.0901 16.8732 28.125V31.875C16.8732 32.9118 17.7132 33.7499 18.7519 33.7499H26.2501V41.233C26.2501 42.2679 27.0882 43.1061 28.125 43.1061H31.875C32.9099 43.1061 33.7499 42.2679 33.7499 41.233V33.7499H41.2875C42.3262 33.7499 43.1663 32.9118 43.1663 31.875V28.125C43.1644 27.0918 42.3224 26.2501 41.2856 26.2501Z" fill="#FF9B00"/>
</svg>
