<svg width="96" height="96" viewBox="0 0 96 96" fill="none" xmlns="http://www.w3.org/2000/svg">
<g clip-path="url(#clip0_10:1037)">
<path d="M96 36.0674V29.3979C96 27.5962 94.5337 26.1299 92.7319 26.1299C91.5776 26.1299 90.4929 25.6809 89.677 24.8665C88.8611 24.0491 88.4114 22.9636 88.4114 21.8101V10.0664C88.4114 8.23755 86.9238 6.75 85.095 6.75H81.0952C79.2664 6.75 77.7788 8.23828 77.7788 10.0664V16.9402C77.7788 21.2043 74.3782 24.7302 70.199 24.8005C68.1211 24.8328 66.1465 24.0498 64.6611 22.5886C63.175 21.1267 62.3569 19.1741 62.3569 17.0903V10.0664C62.3569 8.23755 60.8687 6.75 59.0398 6.75H55.0408C53.2119 6.75 51.7236 8.23828 51.7236 10.0664V14.3042C51.7236 15.0813 52.3535 15.7104 53.1299 15.7104C53.907 15.7104 54.5361 15.0813 54.5361 14.3042V10.0664C54.5361 9.78882 54.7625 9.5625 55.0408 9.5625H59.0398C59.3181 9.5625 59.5444 9.78882 59.5444 10.0664V17.0903C59.5444 19.9343 60.6614 22.5989 62.6887 24.5933C64.7161 26.5876 67.3997 27.6541 70.2458 27.613C75.9507 27.5164 80.5913 22.7285 80.5913 16.9402V10.0664C80.5913 9.78882 80.8176 9.5625 81.0952 9.5625H85.095C85.3726 9.5625 85.5989 9.78882 85.5989 10.0664V21.8101C85.5989 23.7136 86.3401 25.5051 87.6885 26.855C89.0369 28.2012 90.8276 28.9424 92.7319 28.9424C92.9832 28.9424 93.1875 29.1467 93.1875 29.3979V35.2083L70.0671 46.3008L46.9482 35.209V29.3979C46.9482 29.2427 47.0208 29.1372 47.0845 29.0735C47.1335 29.0244 47.2397 28.9424 47.4038 28.9424C51.3369 28.9424 54.5361 25.7432 54.5361 21.8101V19.9292C54.5361 19.1528 53.907 18.5229 53.1299 18.5229C52.3535 18.5229 51.7236 19.1528 51.7236 19.9292V21.8101C51.7236 24.1919 49.7856 26.1299 47.4038 26.1299C46.5278 26.1299 45.7061 26.4705 45.093 27.0872C44.4756 27.7046 44.1357 28.5256 44.1357 29.3979V36.0454C44.135 36.0769 44.135 36.1084 44.1357 36.1399V59.5063L36.9038 63.8408C35.885 63.2563 34.719 62.9414 33.5361 62.9414H25.1455V38.6484H33.5361C37.2634 38.6484 40.2957 35.6162 40.2957 31.8889C40.2957 28.1616 37.2634 25.1294 33.5361 25.1294H32.0632V23.5935C32.0632 20.5503 29.5869 18.0747 26.5437 18.0747H25.1455V15.3186C25.1455 13.7161 23.8418 12.4124 22.2393 12.4124H18.0564C16.4539 12.4124 15.1501 13.7161 15.1501 15.3186V18.0747H13.752C10.7087 18.0747 8.23242 20.5503 8.23242 23.5935V25.1294H6.75952C6.14209 25.1294 5.53052 25.2129 4.94092 25.377C4.19312 25.5857 3.75513 26.3613 3.96387 27.1099C4.17261 27.8577 4.94751 28.2942 5.69678 28.0862C6.04028 27.9902 6.39771 27.9419 6.75952 27.9419H33.5361C35.7129 27.9419 37.4832 29.7122 37.4832 31.8889C37.4832 34.0649 35.7129 35.8352 33.5361 35.8352H6.75952C4.58276 35.8352 2.8125 34.0649 2.8125 31.8889C2.8125 31.6655 2.83154 31.4407 2.86816 31.2224C2.9978 30.4563 2.48218 29.7305 1.7168 29.6008C0.951416 29.4705 0.224854 29.9868 0.0952148 30.7529C0.0322266 31.1265 0 31.5088 0 31.8889C0 35.6162 3.03223 38.6484 6.75952 38.6484H15.1501V62.9414H6.75952C3.03223 62.9414 0 65.9736 0 69.7009C0 71.5042 0.702393 73.2019 1.98047 74.4822C3.25854 75.7581 4.9563 76.4604 6.75952 76.4604H8.23315V77.9956C8.23315 81.0396 10.7087 83.5159 13.7512 83.5159H15.1501V86.272C15.1501 87.8745 16.4539 89.1782 18.0564 89.1782H22.2393C23.8418 89.1782 25.1455 87.8745 25.1455 86.272V83.5159H25.2012C25.4919 83.8975 25.812 84.26 26.1614 84.6006C28.0503 86.4456 30.5002 87.3845 32.9971 87.3845H83.696C86.6565 87.3845 89.0654 84.9756 89.0654 82.0144V73.6853H89.8162C93.2263 73.6853 96 70.9109 96 67.5015V36.1157C96 36.0996 96 36.0835 96 36.0674ZM17.9626 15.3186C17.9626 15.2673 18.0044 15.2249 18.0564 15.2249H22.2393C22.2913 15.2249 22.333 15.2673 22.333 15.3186V18.0747H17.9626V15.3186ZM11.0449 25.1294V23.5935C11.0449 22.1008 12.2593 20.8872 13.752 20.8872H16.5271H16.5564H16.585H23.71H23.7393H23.7686H26.5437C28.0364 20.8872 29.2507 22.1008 29.2507 23.5935V25.1294H11.0449ZM58.9731 56.3306C59.6016 56.3306 60.167 56.7275 60.3816 57.3179C62.0142 61.8223 66.3303 64.8486 71.1204 64.8486C76.0129 64.8486 80.3591 61.7366 81.9346 57.1047C82.092 56.6418 82.5271 56.3306 83.0164 56.3306H83.8901C85.1931 56.3306 86.2529 57.3904 86.2529 58.6934V76.4092H66.7837L62.1709 69.7998C61.7271 69.1633 60.8496 69.0073 60.2131 69.4519C59.5767 69.8958 59.4207 70.7725 59.8645 71.4097L63.3538 76.4092H59.9795L51.293 63.9602L53.6726 62.5334L56.647 66.7969C56.9209 67.1887 57.3574 67.3989 57.802 67.3989C58.0796 67.3989 58.3601 67.3169 58.6047 67.1455C59.2419 66.7009 59.3979 65.8242 58.9541 65.1877L55.9607 60.8972C56.7561 60.0007 57.2183 58.8274 57.2183 57.6028V56.3306H58.9731ZM53.2727 76.4092L46.5637 66.7947L48.8745 65.4097L56.5496 76.4092H53.2727ZM46.4678 76.4092L41.7656 69.6709L44.1453 68.2449L49.8428 76.4099H46.4678V76.4092ZM33.4438 69.1934C33.5156 69.3237 33.5977 69.4497 33.6892 69.5691C34.626 70.7878 36.0454 71.4404 37.4905 71.4404C38.1064 71.4404 38.7275 71.3218 39.3179 71.0771L43.0386 76.4092H26.1233C26.469 74.4324 27.6628 72.6584 29.4104 71.6118L33.4438 69.1934ZM54.4058 56.6309V57.6035C54.4058 58.3425 54.0161 59.0376 53.3877 59.425C53.3628 59.4397 53.3379 59.4543 53.3137 59.4705L48.5925 62.2998C48.5684 62.3137 48.5442 62.3284 48.52 62.3438L43.8406 65.1482C43.8318 65.1533 43.8223 65.1592 43.8135 65.165L38.5049 68.3467C37.6428 68.8638 36.5317 68.6521 35.9187 67.8552C35.9114 67.8457 35.8887 67.8157 35.8982 67.7666C35.9062 67.7234 35.9319 67.7036 35.9451 67.6948L37.5557 66.7295C37.574 66.7192 37.593 66.7075 37.6113 66.6958L54.3428 56.6667C54.364 56.6543 54.3845 56.6426 54.4058 56.6309ZM17.9626 38.6484H22.333V62.9414H17.9626V38.6484ZM11.0457 77.9963V76.4604H18.9902C19.7666 76.4604 20.3965 75.8313 20.3965 75.0542C20.3965 74.2778 19.7666 73.6479 18.9902 73.6479H6.75952C5.7063 73.6479 4.7146 73.2378 3.96899 72.4937C3.22339 71.7458 2.8125 70.7542 2.8125 69.7009C2.8125 67.5249 4.58276 65.7539 6.75952 65.7539H33.5361C33.5933 65.7539 33.6497 65.7554 33.7061 65.7576L27.9646 69.1992C25.0305 70.9578 23.2083 74.1746 23.2083 77.5957C23.2083 78.5303 23.3401 79.4348 23.5854 80.291C23.5884 80.302 23.592 80.313 23.595 80.324C23.5972 80.3313 23.5994 80.3386 23.6016 80.3459C23.636 80.4661 23.6733 80.5847 23.7129 80.7034H13.7512C12.2593 80.7034 11.0457 79.489 11.0457 77.9963ZM22.333 86.272C22.333 86.3232 22.2905 86.3657 22.2393 86.3657H18.0564C18.0051 86.3657 17.9626 86.3232 17.9626 86.272V83.5159H22.333V86.272ZM86.2529 82.0144C86.2529 83.425 85.106 84.572 83.6953 84.572C51.2578 84.572 32.9604 84.5735 32.811 84.5698C29.606 84.4856 26.9326 82.229 26.2119 79.2217H45.6995C45.7119 79.2224 45.7236 79.2224 45.7361 79.2224C45.7485 79.2224 45.761 79.2224 45.7734 79.2217H52.5037C52.5161 79.2224 52.5278 79.2224 52.5403 79.2224C52.5527 79.2224 52.5652 79.2224 52.5776 79.2217H59.2104C59.2229 79.2224 59.2354 79.2224 59.2471 79.2224C59.2595 79.2224 59.272 79.2224 59.2844 79.2217H66.0146C66.0271 79.2224 66.0388 79.2224 66.0513 79.2224C66.0637 79.2224 66.0762 79.2224 66.0886 79.2217H86.2529V82.0144ZM89.8162 70.8728H89.0654V58.6934C89.0654 55.8398 86.7437 53.5181 83.8901 53.5181H83.0164C81.3223 53.5181 79.8179 54.5955 79.2715 56.1987C78.0842 59.6902 74.8081 62.0354 71.1204 62.0354C67.5088 62.0354 64.2561 59.7546 63.0249 56.3599C62.4089 54.6599 60.7808 53.5181 58.9724 53.5181C55.8376 53.5986 54.6431 53.2104 52.897 54.2549L46.9475 57.8203V38.3284L69.4585 49.1287C69.6511 49.2209 69.8591 49.2671 70.0671 49.2671C70.2751 49.2671 70.4832 49.2209 70.675 49.1287L93.1868 38.3276V67.5015C93.1875 69.3604 91.675 70.8728 89.8162 70.8728Z" fill="#FF9B00"/>
<path d="M68.6011 31.5271H67.6562C66.8792 31.5271 66.25 32.1563 66.25 32.9333C66.25 33.7097 66.8792 34.3396 67.6562 34.3396H67.9536V39.2036H67.7822C67.0051 39.2036 66.376 39.8328 66.376 40.6099C66.376 41.387 67.0051 42.0161 67.7822 42.0161H70.9375C71.7146 42.0161 72.3438 41.387 72.3438 40.6099C72.3438 39.8328 71.7146 39.2036 70.9375 39.2036H70.7661V33.6921C70.7661 32.4983 69.7949 31.5271 68.6011 31.5271Z" fill="#FF9B00"/>
</g>
<defs>
<clipPath id="clip0_10:1037">
<rect width="96" height="96" fill="white"/>
</clipPath>
</defs>
</svg>
