<svg width="70" height="70" viewBox="0 0 70 70" fill="none" xmlns="http://www.w3.org/2000/svg">
<path d="M44.0234 54.8242C50.0544 54.8242 54.9609 59.7308 54.9609 65.7617C54.9609 66.5167 55.5732 67.1289 56.3281 67.1289C57.0831 67.1289 57.6953 66.5167 57.6953 65.7617C57.6953 59.7308 62.6019 54.8242 68.6328 54.8242C69.3878 54.8242 70 54.212 70 53.457C70 52.7021 69.3878 52.0898 68.6328 52.0898C62.6019 52.0898 57.6953 47.1833 57.6953 41.1523C57.6953 40.3974 57.0831 39.7852 56.3281 39.7852C55.5732 39.7852 54.9609 40.3974 54.9609 41.1523C54.9609 47.1833 50.0544 52.0898 44.0234 52.0898C43.2685 52.0898 42.6562 52.7021 42.6562 53.457C42.6562 54.212 43.2685 54.8242 44.0234 54.8242ZM56.3281 47.1093C57.6702 49.8702 59.9148 52.1149 62.6758 53.457C59.9149 54.7991 57.6703 57.0437 56.3281 59.8047C54.9861 57.0438 52.7414 54.7992 49.9804 53.457C52.7414 52.115 54.9861 49.8704 56.3281 47.1093Z" fill="white"/>
<path d="M1.36719 13.8086C5.13652 13.8086 8.20312 16.8752 8.20312 20.6445C8.20312 21.3995 8.81522 22.0117 9.57031 22.0117C10.3254 22.0117 10.9375 21.3995 10.9375 20.6445C10.9375 16.8752 14.0041 13.8086 17.7734 13.8086C18.5285 13.8086 19.1406 13.1964 19.1406 12.4414C19.1406 11.6864 18.5285 11.0742 17.7734 11.0742C14.0041 11.0742 10.9375 8.00762 10.9375 4.23828C10.9375 3.48332 10.3254 2.87109 9.57031 2.87109C8.81522 2.87109 8.20312 3.48332 8.20312 4.23828C8.20312 8.00762 5.13652 11.0742 1.36719 11.0742C0.61209 11.0742 0 11.6864 0 12.4414C0 13.1964 0.61209 13.8086 1.36719 13.8086ZM9.57031 9.16344C10.3787 10.5046 11.5071 11.6331 12.8481 12.4414C11.5069 13.2497 10.3786 14.3782 9.57031 15.7194C8.76189 14.3782 7.63355 13.2497 6.29248 12.4414C7.63355 11.6331 8.76189 10.5046 9.57031 9.16344Z" fill="white"/>
<path d="M38.1445 41.5625C38.8996 41.5625 39.5117 40.9504 39.5117 40.1953C39.5117 39.4402 38.8996 38.8281 38.1445 38.8281C37.3895 38.8281 36.7773 39.4402 36.7773 40.1953C36.7773 40.9504 37.3895 41.5625 38.1445 41.5625Z" fill="white"/>
<path d="M41.7919 37.0773C42.1771 37.7266 43.0161 37.9407 43.6654 37.5553C47.2362 35.4364 51.3312 34.3164 55.5078 34.3164C56.2628 34.3164 56.875 33.7042 56.875 32.9492C56.875 32.1943 56.2628 31.582 55.5078 31.582C42.6921 31.582 32.2656 21.1556 32.2656 8.33984C32.2656 7.58488 31.6535 6.97266 30.8984 6.97266C30.1433 6.97266 29.5312 7.58488 29.5312 8.33984C29.5312 21.1556 19.1048 31.582 6.28906 31.582C5.53396 31.582 4.92188 32.1943 4.92188 32.9492C4.92188 33.7042 5.53396 34.3164 6.28906 34.3164C19.1048 34.3164 29.5312 44.7429 29.5312 57.5586C29.5312 58.3136 30.1433 58.9258 30.8984 58.9258C31.6535 58.9258 32.2656 58.3136 32.2656 57.5586C32.2656 53.382 33.3856 49.287 35.5045 45.7162C35.8898 45.0667 35.6758 44.228 35.0265 43.8427C34.3767 43.457 33.5382 43.6714 33.1531 44.3207C32.2283 45.879 31.4739 47.526 30.8975 49.2331C28.3062 41.5938 22.2514 35.5398 14.6118 32.9492C22.2522 30.3584 28.3076 24.303 30.8984 16.6626C33.489 24.3022 39.543 30.357 47.1822 32.9483C45.4753 33.5247 43.8282 34.2791 42.2697 35.2038C41.6206 35.5893 41.4065 36.4279 41.7919 37.0773Z" fill="white"/>
</svg>
