<svg width="54" height="54" viewBox="0 0 54 54" fill="none" xmlns="http://www.w3.org/2000/svg">
<path d="M32.4544 49.1843C32.0091 49.2953 31.5551 49.3939 31.1045 49.4769C29.9265 49.6959 29.1478 50.8288 29.3656 52.0079C29.4733 52.5879 29.8027 53.071 30.2499 53.3864C30.7109 53.7109 31.2976 53.8574 31.8954 53.7462C32.432 53.6466 32.9728 53.5294 33.5035 53.397C34.6668 53.1075 35.3754 51.929 35.0852 50.7664C34.7957 49.6027 33.6183 48.8946 32.4544 49.1843Z" fill="white"/>
<path d="M48.5079 20.0871C48.66 20.5454 48.9503 20.9195 49.317 21.178C49.8607 21.561 50.5722 21.6898 51.2511 21.4653C52.3894 21.0874 53.0061 19.86 52.6295 18.7223C52.458 18.2036 52.2676 17.6834 52.0648 17.1768C51.6195 16.0636 50.3568 15.5216 49.2431 15.9669C48.1304 16.412 47.5882 17.675 48.0339 18.7886C48.2043 19.2143 48.3639 19.6514 48.5079 20.0871Z" fill="white"/>
<path d="M39.5084 46.0849C39.1254 46.3377 38.7302 46.5824 38.332 46.8117C37.2932 47.4109 36.9375 48.7387 37.5364 49.7771C37.6991 50.0595 37.9157 50.2904 38.1651 50.4668C38.8348 50.938 39.7443 51.0085 40.5014 50.5723C40.9748 50.2993 41.4455 50.0089 41.9016 49.7073C42.9015 49.0467 43.1767 47.6998 42.5158 46.6994C41.8549 45.6987 40.5086 45.4238 39.5084 46.0849Z" fill="white"/>
<path d="M53.9796 26.1502C53.9323 24.952 52.9231 24.0194 51.7246 24.0662C50.5276 24.1135 49.5943 25.123 49.6413 26.3207C49.6593 26.7786 49.664 27.2434 49.6534 27.7009C49.6366 28.4523 50.0041 29.122 50.5752 29.5246C50.9154 29.7642 51.3283 29.9092 51.776 29.9194C52.9742 29.946 53.9671 28.9956 53.9937 27.7969C54.0057 27.2503 54.0011 26.6965 53.9796 26.1502Z" fill="white"/>
<path d="M48.1536 40.3742C47.1928 39.6533 45.8335 39.849 45.1139 40.8081C44.8383 41.1753 44.5482 41.5381 44.251 41.8874C43.4744 42.7998 43.5841 44.1702 44.4965 44.9473C44.5485 44.9915 44.6011 45.032 44.6556 45.07C45.5627 45.7095 46.8233 45.5626 47.5567 44.7019C47.9115 44.2852 48.2574 43.8519 48.5868 43.4132C49.3065 42.4542 49.1117 41.094 48.1536 40.3742Z" fill="white"/>
<path d="M51.3446 32.5269C50.2006 32.1682 48.9824 32.805 48.6239 33.949C48.4867 34.386 48.3347 34.8251 48.1705 35.2552C47.8101 36.2019 48.1554 37.2436 48.9471 37.8019C49.0923 37.9039 49.2523 37.9904 49.426 38.0561C50.5461 38.4835 51.8003 37.9215 52.2273 36.801C52.4222 36.2897 52.603 35.7672 52.7666 35.2477C53.1247 34.1035 52.4883 32.8856 51.3446 32.5269Z" fill="white"/>
<path d="M22.9835 49.4964C21.0427 49.1479 19.1809 48.5545 17.4154 47.7269C17.3945 47.7159 17.3758 47.7035 17.3539 47.6935C16.9379 47.4977 16.5225 47.288 16.12 47.0688C16.1186 47.0672 16.116 47.0661 16.1138 47.0652C15.3752 46.6585 14.6544 46.2084 13.9541 45.7154C3.74235 38.522 1.28704 24.3618 8.48093 14.1502C10.0452 11.9305 11.9382 10.0787 14.0487 8.61099C14.0747 8.59288 14.1007 8.57488 14.1264 8.55666C21.5633 3.43246 31.6613 3.08713 39.5581 8.35271L37.8621 10.8033C37.3905 11.4853 37.6806 11.9824 38.5061 11.9081L45.8733 11.2485C46.6997 11.1742 47.194 10.4593 46.9717 9.66115L44.9934 2.5332C44.7719 1.73411 44.2048 1.63846 43.7329 2.32043L42.0329 4.77678C36.2378 0.886618 29.2871 -0.596757 22.3881 0.599554C21.6933 0.719812 21.0082 0.867 20.3325 1.03833C20.3273 1.03926 20.3231 1.03984 20.3189 1.04077C20.2928 1.04716 20.2663 1.05563 20.2409 1.06271C14.2918 2.59043 9.10137 6.06015 5.39763 11.0107C5.36641 11.0477 5.33425 11.0839 5.30477 11.1242C5.18161 11.2901 5.05938 11.4598 4.9397 11.6295C4.74399 11.9076 4.55107 12.1927 4.3665 12.4778C4.3434 12.5122 4.32576 12.5471 4.30556 12.5818C1.2492 17.318 -0.225005 22.7934 0.027815 28.3678C0.0283954 28.3861 0.0273506 28.4046 0.027815 28.4234C0.0523077 28.9679 0.0954891 29.52 0.154109 30.0634C0.157243 30.0985 0.16502 30.1317 0.17094 30.1668C0.231534 30.7133 0.307566 31.261 0.402867 31.8087C1.37143 37.3965 4.00735 42.4247 7.95718 46.3372C7.96635 46.3463 7.97587 46.3563 7.98515 46.3658C7.9884 46.3694 7.992 46.3713 7.99514 46.3747C9.05633 47.4213 10.2106 48.3894 11.4535 49.2648C14.706 51.5567 18.3278 53.0716 22.2174 53.7696C23.3976 53.9817 24.5249 53.196 24.7366 52.0164C24.9483 50.836 24.1633 49.7078 22.9835 49.4964Z" fill="white"/>
<path d="M25.6677 9.65755C24.697 9.65755 23.9106 10.4446 23.9106 11.4139V28.9125L39.9145 37.1856C40.172 37.319 40.4478 37.3818 40.7192 37.3818C41.3549 37.3818 41.9688 37.0356 42.281 36.4317C42.7261 35.5697 42.3893 34.5107 41.5273 34.0655L27.4228 26.7736V11.4139C27.4227 10.4446 26.6373 9.65755 25.6677 9.65755Z" fill="white"/>
</svg>
