<svg width="90" height="90" viewBox="0 0 90 90" fill="none" xmlns="http://www.w3.org/2000/svg">
<path d="M61.6764 25.3526C55.6061 25.3526 49.8628 27.2268 45 30.7813C41.9695 28.5663 38.5973 27.0045 35.0169 26.1417L42.6266 17.4209C42.6292 17.4179 42.631 17.4144 42.6335 17.4114C42.6786 17.3588 42.7189 17.3026 42.7553 17.2435C42.7611 17.234 42.7669 17.2247 42.7725 17.2152C42.8063 17.157 42.8358 17.0964 42.8606 17.0329C42.8644 17.0231 42.8678 17.0132 42.8715 17.0032C42.8947 16.9394 42.914 16.8737 42.9272 16.8058C42.9284 16.7997 42.9289 16.7935 42.93 16.7875C42.9414 16.7241 42.9479 16.6592 42.95 16.5931C42.9504 16.5843 42.9513 16.5757 42.9513 16.5669C42.9513 16.5622 42.952 16.5574 42.952 16.5527C42.952 16.4896 42.946 16.4279 42.9376 16.3674C42.9358 16.3555 42.9342 16.3439 42.9321 16.3319C42.9209 16.2649 42.905 16.1995 42.8839 16.1366C42.8811 16.1283 42.8778 16.1203 42.875 16.112C42.8511 16.0447 42.8229 15.9793 42.789 15.9176C42.7876 15.9149 42.7859 15.9125 42.7845 15.9098C42.7479 15.8443 42.7059 15.7822 42.6589 15.7242C42.6575 15.7225 42.6567 15.7205 42.6553 15.7188L42.6503 15.7128L36.7646 8.48784C36.5138 8.17987 36.1375 8.0011 35.7404 8.0011H31.2583H25.3881H20.9064C20.5091 8.0011 20.1329 8.17987 19.8821 8.48784L13.9966 15.7117L13.9917 15.7177C13.9903 15.7195 13.9894 15.7214 13.988 15.7232C13.941 15.7812 13.8992 15.8432 13.8625 15.9088C13.8611 15.9114 13.8593 15.9139 13.8579 15.9165C13.824 15.9784 13.7958 16.0438 13.7719 16.1109C13.7689 16.1192 13.7656 16.1273 13.763 16.1356C13.7421 16.1987 13.7262 16.264 13.7148 16.3308C13.7129 16.3426 13.7111 16.3544 13.7094 16.3664C13.7007 16.4272 13.6949 16.4885 13.6949 16.5516C13.6949 16.5565 13.6956 16.5611 13.6956 16.5659C13.6958 16.5747 13.6967 16.5833 13.6969 16.5921C13.6988 16.6583 13.7055 16.7232 13.7169 16.7865C13.718 16.7926 13.7185 16.7988 13.7197 16.8048C13.7329 16.8728 13.7522 16.9385 13.7754 17.0022C13.7791 17.0122 13.7825 17.022 13.7863 17.0319C13.8111 17.0953 13.8407 17.156 13.8744 17.2141C13.8799 17.2236 13.8858 17.233 13.8916 17.2424C13.928 17.3017 13.9686 17.3578 14.0135 17.4103C14.0161 17.4133 14.0177 17.4168 14.0203 17.4198L21.6385 26.1509C9.23678 29.1641 0 40.3608 0 53.6763C0 69.2941 12.706 81.9999 28.3235 81.9999C34.3937 81.9999 40.137 80.1257 45 76.5713C49.8628 80.1256 55.6059 81.9999 61.6765 81.9999C77.2942 81.9999 90 69.2939 90 53.6763C90 38.0586 77.294 25.3526 61.6764 25.3526ZM35.1128 10.6424L38.8508 15.231H34.5519L33.0725 10.6424H35.1128ZM34.5312 17.8731H38.725L31.9952 25.5859C31.9544 25.5808 31.9141 25.575 31.8737 25.5699L34.5312 17.8731ZM26.3507 10.6422H30.2964L31.7758 15.2308H24.8713L26.3507 10.6422ZM31.7359 17.8733L29.1489 25.3658C28.8745 25.3581 28.5996 25.3528 28.3238 25.3528C28.1544 25.3528 27.9805 25.3555 27.8038 25.3593C27.7021 25.3611 27.6001 25.3627 27.4983 25.3657L24.9114 17.8733H31.7359ZM21.5344 10.6422H23.5744L22.0952 15.2308H17.7964L21.5344 10.6422ZM17.9223 17.8733H22.1159L24.7751 25.5745C24.7352 25.5796 24.6953 25.5847 24.6556 25.5898L17.9223 17.8733ZM28.3235 79.3574C14.1629 79.3574 2.64234 67.8369 2.64234 53.6763C2.64234 40.866 12.0705 30.217 24.352 28.3024C24.6586 28.2548 24.9664 28.2133 25.2752 28.1767C25.3137 28.1722 25.3526 28.1678 25.3913 28.1634C25.8061 28.1161 26.2223 28.0818 26.6388 28.0546C26.6453 28.0542 26.6516 28.0555 26.6581 28.0549C26.9654 28.0352 27.247 28.0208 27.5124 28.0108C27.7829 28.0022 28.0535 27.995 28.3233 27.995C28.8638 27.995 29.4005 28.0293 29.9842 28.0669C30.0127 28.0686 30.0412 28.0695 30.0693 28.0695C30.0906 28.0695 30.1113 28.0657 30.1324 28.0646C30.8382 28.1177 31.557 28.2007 32.3017 28.3165C32.3696 28.327 32.4376 28.3321 32.5049 28.3321C32.5078 28.3321 32.5107 28.3318 32.5136 28.3316C36.7604 29.0217 40.7357 30.7655 44.1831 33.476C44.5382 33.7552 44.8863 34.0443 45.2269 34.3424C45.5586 34.6328 45.8828 34.9324 46.1995 35.2398C46.3706 35.4059 46.5398 35.574 46.7063 35.7447C47.1813 36.2316 47.6371 36.7373 48.072 37.2601C48.072 37.2601 48.072 37.2601 48.0721 37.2602C51.8977 41.8571 54.0046 47.6871 54.0046 53.6761C54.0046 59.2373 52.1879 64.6614 48.8658 69.0882C48.8587 69.0823 48.8514 69.0766 48.8442 69.0708C48.6613 68.9181 48.481 68.7625 48.3035 68.6034C48.2694 68.5729 48.2361 68.5407 48.2022 68.5098C48.06 68.3806 47.9192 68.2501 47.7807 68.1169C47.72 68.0585 47.6612 67.9988 47.6012 67.9395C47.4912 67.8311 47.3815 67.7219 47.2741 67.6108C47.209 67.5435 47.1451 67.4751 47.0811 67.4071C46.9809 67.3007 46.8814 67.1933 46.7835 67.0847C46.7536 67.0516 46.7242 67.0177 46.6945 66.9845C48.8268 64.0444 50.2265 60.6284 50.7603 57.0404C50.8676 56.3186 50.3698 55.6464 49.6482 55.5392C48.9255 55.4314 48.2542 55.93 48.147 56.6514C47.7137 59.5634 46.632 62.3463 44.9974 64.7941C42.7913 61.5045 41.6333 57.695 41.6333 53.6759C41.6333 49.6569 42.7915 45.8473 44.9974 42.5579C46.8049 45.2618 47.9271 48.3561 48.2606 51.6049C48.3305 52.285 48.9043 52.7912 49.5733 52.7912C49.6185 52.7912 49.664 52.7889 49.7099 52.7842C50.4359 52.7097 50.9637 52.0607 50.8892 51.3349C50.4443 47.0001 48.764 42.9065 46.0306 39.4967C44.9306 38.1246 43.6753 36.8842 42.2919 35.8018C42.0943 35.6471 41.8939 35.4956 41.6913 35.3477C37.7895 32.4974 33.1669 30.9907 28.3235 30.9907C22.8647 30.9907 17.5896 32.9576 13.4699 36.529C12.9187 37.0069 12.8593 37.8414 13.3371 38.3926C13.815 38.9439 14.6494 39.0033 15.2007 38.5255C18.8399 35.3704 23.5002 33.633 28.3233 33.633C32.1418 33.633 35.8029 34.6954 38.996 36.7123C35.3479 41.5892 33.3524 47.5568 33.3524 53.6758C33.3524 59.7945 35.3479 65.7623 38.996 70.6392C35.8029 72.6561 32.1418 73.7185 28.3233 73.7185C17.2716 73.7185 8.28053 64.7273 8.28053 53.6758C8.28053 49.5656 9.51521 45.6162 11.851 42.2542C12.2674 41.6551 12.1191 40.8318 11.5198 40.4153C10.9206 39.9987 10.0974 40.1473 9.68115 40.7465C7.03617 44.5532 5.63818 49.0241 5.63818 53.6758C5.63818 66.1843 15.8147 76.3608 28.3233 76.3608C32.7589 76.3608 37.0088 75.0975 40.6898 72.6955C40.7222 72.7311 40.7559 72.7658 40.7885 72.8011C40.8755 72.896 40.9635 72.9901 41.052 73.0839C41.1365 73.1739 41.2212 73.2636 41.3072 73.3525C41.397 73.4455 41.4881 73.5374 41.5791 73.6292C41.666 73.7167 41.7528 73.8041 41.8407 73.8904C41.933 73.9809 42.0263 74.0702 42.1196 74.1595C42.2088 74.2446 42.2977 74.3299 42.3879 74.4139C42.4823 74.5018 42.5779 74.5884 42.6735 74.6749C42.7372 74.7326 42.7994 74.7915 42.8632 74.8484C38.5813 77.8042 33.5881 79.3574 28.3235 79.3574ZM61.6764 79.3574C55.8612 79.3574 50.3768 77.4621 45.8165 73.8765C44.3962 72.7594 43.0875 71.4864 41.9273 70.0923C38.1018 65.4951 35.9949 59.6653 35.9949 53.6763C35.9949 48.1153 37.8114 42.6912 41.1337 38.2641C41.1405 38.2698 41.1476 38.2752 41.1544 38.2808C41.3376 38.4336 41.5181 38.5895 41.6958 38.7488C41.7312 38.7804 41.7654 38.8136 41.8006 38.8456C41.9416 38.9738 42.0813 39.1031 42.2186 39.2353C42.28 39.2944 42.3397 39.355 42.4004 39.415C42.5094 39.5225 42.6182 39.6308 42.7247 39.7409C42.7908 39.8091 42.8555 39.8785 42.9203 39.9476C43.0193 40.0529 43.1177 40.1589 43.2146 40.2663C43.245 40.3 43.2751 40.3345 43.3051 40.3686C40.516 44.2196 38.9909 48.9031 38.9909 53.6765C38.9909 58.8158 40.7587 63.8514 43.969 67.8553C45.2261 69.4233 46.6861 70.8193 48.3082 72.0045C52.21 74.8548 56.8327 76.3615 61.6762 76.3615C67.6088 76.3615 73.2199 74.0862 77.4758 69.955C77.9992 69.4468 78.0117 68.6105 77.5034 68.0868C76.9952 67.5632 76.1588 67.551 75.6352 68.0592C71.8752 71.7091 66.9178 73.7192 61.676 73.7192C57.8575 73.7192 54.1963 72.6566 51.0031 70.6397C54.6513 65.763 56.6467 59.7952 56.6467 53.6763C56.6467 47.5573 54.6513 41.5896 51.0031 36.7129C54.1963 34.6959 57.8575 33.6335 61.676 33.6335C72.7277 33.6335 81.7188 42.6247 81.7188 53.6763C81.7188 57.3965 80.6926 61.028 78.7509 64.1778C78.3679 64.799 78.5612 65.6129 79.1823 65.9957C79.8035 66.3788 80.6173 66.1854 81.0002 65.5644C83.199 61.9974 84.3613 57.8866 84.3613 53.6763C84.3613 41.1677 74.1848 30.9912 61.6762 30.9912C57.2407 30.9912 52.9907 32.2545 49.3096 34.6566C49.2782 34.6219 49.2455 34.5882 49.2138 34.5537C49.1244 34.4562 49.034 34.3595 48.9431 34.263C48.8609 34.1756 48.7786 34.0884 48.6953 34.0021C48.6028 33.9065 48.5093 33.8119 48.4154 33.7175C48.3312 33.6328 48.2472 33.5481 48.162 33.4644C48.0669 33.3711 47.9707 33.279 47.8742 33.1869C47.7879 33.1044 47.7018 33.022 47.6146 32.9408C47.5168 32.8497 47.4177 32.7599 47.3184 32.6702C47.2572 32.6149 47.1976 32.5583 47.1361 32.5036C51.4183 29.5487 56.4114 27.9955 61.6762 27.9955C75.8368 27.9955 87.3573 39.516 87.3573 53.6766C87.3577 67.8369 75.8371 79.3574 61.6764 79.3574Z" fill="#FF9B00"/>
</svg>
