<svg width="64" height="64" viewBox="0 0 64 64" fill="none" xmlns="http://www.w3.org/2000/svg">
<g clip-path="url(#clip0_10:999)">
<path d="M15.9733 49.36C15.632 49.36 15.2907 49.2293 15.0293 48.9707C10.4987 44.4373 8 38.4107 8 32C8 25.5893 10.4987 19.5627 15.032 15.032C15.552 14.512 16.3973 14.512 16.9173 15.032C17.4373 15.552 17.4373 16.3973 16.9173 16.9173C12.888 20.9467 10.6667 26.3013 10.6667 32C10.6667 37.6987 12.888 43.0533 16.9173 47.0827C17.4373 47.6027 17.4373 48.448 16.9173 48.968C16.656 49.2294 16.3147 49.36 15.9733 49.36Z" fill="white"/>
<path d="M10.32 55.0133C9.97867 55.0133 9.63733 54.8827 9.376 54.624C3.33067 48.576 0 40.5413 0 32C0 23.4587 3.33067 15.424 9.37867 9.37866C9.89867 8.85866 10.744 8.85866 11.264 9.37866C11.784 9.89866 11.784 10.744 11.264 11.264C5.72 16.8053 2.66667 24.1707 2.66667 32C2.66667 39.8293 5.72 47.1947 11.264 52.736C11.784 53.256 11.784 54.1013 11.264 54.6213C11.0027 54.8827 10.6613 55.0133 10.32 55.0133Z" fill="white"/>
<path d="M53.6802 55.0133C53.3389 55.0133 52.9975 54.8827 52.7362 54.624C52.2162 54.104 52.2162 53.2587 52.7362 52.7387C58.2802 47.1947 61.3335 39.8293 61.3335 32C61.3335 24.1707 58.2802 16.8053 52.7362 11.264C52.2162 10.744 52.2162 9.89866 52.7362 9.37866C53.2562 8.85866 54.1015 8.85866 54.6215 9.37866C60.6695 15.424 64.0002 23.4587 64.0002 32C64.0002 40.5413 60.6695 48.576 54.6215 54.6213C54.3629 54.8827 54.0215 55.0133 53.6802 55.0133Z" fill="white"/>
<path d="M48.0269 49.36C47.6855 49.36 47.3442 49.2293 47.0829 48.9707C46.5629 48.4507 46.5629 47.6053 47.0829 47.0853C51.1122 43.0533 53.3335 37.6987 53.3335 32C53.3335 26.3013 51.1122 20.9467 47.0829 16.9173C46.5629 16.3973 46.5629 15.552 47.0829 15.032C47.6029 14.512 48.4482 14.512 48.9682 15.032C53.5015 19.5627 56.0002 25.5893 56.0002 32C56.0002 38.4107 53.5015 44.4373 48.9682 48.968C48.7095 49.2294 48.3682 49.36 48.0269 49.36Z" fill="white"/>
<path d="M25.5281 53.3333C25.3255 53.3333 25.1228 53.288 24.9335 53.1947C24.3628 52.9093 24.0748 52.2613 24.2428 51.6453L28.9175 34.6667H20.0001C19.4961 34.6667 19.0348 34.3813 18.8081 33.9307C18.5841 33.48 18.6321 32.9387 18.9335 32.536L34.8881 11.2027C35.2561 10.7093 35.9148 10.5333 36.4775 10.7733C37.0428 11.0133 37.3708 11.608 37.2721 12.216L34.9041 26.6667H44.0001C44.5068 26.6667 44.9708 26.9547 45.1975 27.4107C45.4215 27.8667 45.3655 28.4107 45.0561 28.8133L26.5841 52.8133C26.3255 53.1493 25.9308 53.3333 25.5281 53.3333ZM22.6641 32H30.6668C31.0828 32 31.4748 32.1947 31.7281 32.5253C31.9788 32.8587 32.0615 33.288 31.9521 33.688L28.6188 45.8L41.2908 29.3333H33.3335C32.9415 29.3333 32.5708 29.1627 32.3175 28.864C32.0641 28.5653 31.9548 28.1707 32.0161 27.784L33.7575 17.1653L22.6641 32Z" fill="white"/>
</g>
<defs>
<clipPath id="clip0_10:999">
<rect width="64" height="64" fill="white"/>
</clipPath>
</defs>
</svg>
